/* XPM */
static char * BoutonMetalBrosseSurPlastiqueBlanc_xpm[] = {
"40 20 119 2",
"  	c None",
". 	c #E6E6E6",
"+ 	c #E4E4E4",
"@ 	c #E3E3E3",
"# 	c #E8E8E8",
"$ 	c #EAEAEA",
"% 	c #EBEBEB",
"& 	c #E9E9E9",
"* 	c #ECECEC",
"= 	c #EDEDED",
"- 	c #EEEEEE",
"; 	c #F0F0F0",
"> 	c #F2F2F0",
", 	c #F3F3F1",
"' 	c #EFEFEF",
") 	c #E7E7E7",
"! 	c #E5E5E5",
"~ 	c #F1F1F1",
"{ 	c #F2F2F2",
"] 	c #F5F5F3",
"^ 	c #F4F4F2",
"/ 	c #F0F0EE",
"( 	c #F5F5F5",
"_ 	c #F3F3F3",
": 	c #F1F1EF",
"< 	c #EEEEEC",
"[ 	c #C8C9CE",
"} 	c #C6C7CC",
"| 	c #C9CACF",
"1 	c #CCCDD2",
"2 	c #CBCCD1",
"3 	c #C3C6CB",
"4 	c #C5C8CD",
"5 	c #C7CACF",
"6 	c #C8CBD0",
"7 	c #C9CCD1",
"8 	c #CACDD2",
"9 	c #C4C7CC",
"0 	c #C2C5CA",
"a 	c #C6C7CB",
"b 	c #C9CACE",
"c 	c #CBCCD0",
"d 	c #CACBCF",
"e 	c #CDCED2",
"f 	c #CECFD3",
"g 	c #FDFDFD",
"h 	c #BCBDC2",
"i 	c #C1C0C6",
"j 	c #C0BFC5",
"k 	c #BDBCC2",
"l 	c #BCBBC1",
"m 	c #BFBEC4",
"n 	c #C2C1C7",
"o 	c #C3C2C8",
"p 	c #BFC0C5",
"q 	c #BEBFC4",
"r 	c #C0C1C6",
"s 	c #C3C4C9",
"t 	c #C7C8CD",
"u 	c #CACBD0",
"v 	c #CECFD4",
"w 	c #C5C6CB",
"x 	c #C2C3C8",
"y 	c #C4C5CA",
"z 	c #F8F8F8",
"A 	c #C1C2C7",
"B 	c #CDCED3",
"C 	c #CFD0D5",
"D 	c #D0D1D6",
"E 	c #F4F4F4",
"F 	c #F6F6F6",
"G 	c #B9BCC1",
"H 	c #BABDC2",
"I 	c #B8BBC0",
"J 	c #BBBEC3",
"K 	c #BDBEC3",
"L 	c #BBBCC1",
"M 	c #BABBC0",
"N 	c #FAFAFA",
"O 	c #C0C3C8",
"P 	c #C1C4C9",
"Q 	c #BFC2C7",
"R 	c #BDC0C5",
"S 	c #BCBFC4",
"T 	c #F9F9F9",
"U 	c #D1D2D7",
"V 	c #D3D4D9",
"W 	c #D5D6DB",
"X 	c #D7D8DD",
"Y 	c #D8D9DE",
"Z 	c #D2D3D8",
"` 	c #E3E3E1",
" .	c #E4E4E2",
"..	c #E5E5E3",
"+.	c #C8C7CD",
"@.	c #CAC9CF",
"#.	c #C9C8CE",
"$.	c #C6C5CB",
"%.	c #C5C4CA",
"&.	c #E6E6E4",
"*.	c #D6D7DC",
"=.	c #D4D5DA",
"-.	c #E8E8E6",
";.	c #E9E9E7",
">.	c #EDEDEB",
",.	c #B8B9BE",
"'.	c #B9BABF",
").	c #F6F6F4",
"!.	c #EFEFED",
"~.	c #FAFAF8",
"{.	c #FEFEFE",
"].	c #FBFBFB",
"^.	c #F7F7F7",
"/.	c #EBEBE9",
"(.	c #FFFFFD",
"_.	c #FFFFFF",
":.	c #FCFCFC",
"<.	c #ECECEA",
"[.	c #F8F8F6",
". + @ + . # $ % $ & # & $ * = = * % % % * * % * * % % % = - ; > , , > ; ' ' ' = ",
") ! + + ! ) & * % $ & # & $ $ * = = = * * = - ~ ; - = = - ; { ] ^ , / - = - ; ' ",
"# . ! + ! ) # * % % $ $ % % * * = ' - = * - ; ( _ ~ ' ' ; { _ , , : < * * ; _ { ",
") . ! [ [ } } | 1 2 | [ 3 3 4 5 6 6 7 8 4 4 9 3 0 0 3 4 a b c d c e f e 1 ; { g ",
") . + h i j k l m n o o p p q r s } t [ | u 1 v v 1 | } } | 1 2 | t w x y ; _ z ",
") ! + h r A x s y w s r A A A x y } [ u 1 1 1 1 B B 1 2 C D D v 1 u u | [ { E E ",
". ! @ y t [ | | [ [ } y } } } s A A x y | t w s s s y w t [ | | t w y w w F ( E ",
". + @ p G H G I I H J J K K h L M L h K K r y t | | [ t t t u 1 2 | | 2 2 N E ( ",
"! + @ s O P P Q R S J H K K q q r A x s p q h M M h q r s A r r q h K p p T _ E ",
"+ + + q q r A A r A A A x A A r r p q K p r A A A A A A r p q q q K h K w ( ~ ~ ",
"+ + + y x y y x A A A A q A w [ 2 B C D U U U U U V W X Y X W V Z D v 2 u ~ ; ' ",
"`  ...[ +.@.@.#.$.%.o i x w [ [ t } } t y y y y y } t | B 1 | t [ 2 1 u 2 = # $ ",
" .....2 C B 1 B 1 1 v D U Z Z D C v 1 u 2 2 u u u | | 2 v 1 u 2 1 B v C C - * $ ",
" ...&.V U U V W X X *.X *.X *.=.Z U U D 1 B B B B 1 2 B 2 2 u u 2 2 2 2 B * - & ",
"..&.-.} y s s y y s x x A s w y s y w w } t t t t } t u 2 1 B B v D U C C $ * & ",
"-.;.>.} } w s s s s x A r s w y x A r r q K M ,.'.'.L q s } [ [ 2 D V Z B & $ # ",
">.< : x x x s } [ u | t w [ | t w s x A A p L '.L h h p p x s x y t [ } u * $ & ",
"/ / , ).)., / < >.>.!.< < , ~.{.{.{.g ].z F E N N T ^.^.z ( ~ ; ' * & * { { - & ",
"/ / > ^ , !./.< >.>.< >.< ).(._._._.g ].^.E _ _.g z E ( N :.].F F ; # % ( F ; $ ",
"<.>.< >.<./.>.<.< / !./ ^ [.~.^.^.N _._.T E { E E { ; ; ( :._.^.( ; * = ; ' * & "};
