/* XPM */
static char * BoutonMetalBrosseSurPlastiqueBlancEnfonce_xpm[] = {
"40 20 146 2",
"  	c None",
". 	c #E6E6E6",
"+ 	c #E4E4E4",
"@ 	c #E3E3E3",
"# 	c #E8E8E8",
"$ 	c #EAEAEA",
"% 	c #EBEBEB",
"& 	c #E9E9E9",
"* 	c #ECECEC",
"= 	c #EDEDED",
"- 	c #EEEEEE",
"; 	c #F0F0F0",
"> 	c #F2F2F0",
", 	c #F3F3F1",
"' 	c #EFEFEF",
") 	c #E7E7E7",
"! 	c #E5E5E5",
"~ 	c #F1F1F1",
"{ 	c #F2F2F2",
"] 	c #F5F5F3",
"^ 	c #F4F4F2",
"/ 	c #F0F0EE",
"( 	c #F5F5F5",
"_ 	c #F3F3F3",
": 	c #F1F1EF",
"< 	c #EEEEEC",
"[ 	c #525252",
"} 	c #515151",
"| 	c #4F4F4F",
"1 	c #4D4D4D",
"2 	c #4B4B4B",
"3 	c #4A4A4A",
"4 	c #494949",
"5 	c #484848",
"6 	c #474747",
"7 	c #454545",
"8 	c #424242",
"9 	c #404040",
"0 	c #3F3F3F",
"a 	c #3E3E3E",
"b 	c #3D3D3D",
"c 	c #3C3C3C",
"d 	c #3B3B3B",
"e 	c #3A3A3A",
"f 	c #383838",
"g 	c #363636",
"h 	c #353535",
"i 	c #343434",
"j 	c #FDFDFD",
"k 	c #505050",
"l 	c #C8C9CE",
"m 	c #C6C7CC",
"n 	c #C9CACF",
"o 	c #CCCDD2",
"p 	c #CBCCD1",
"q 	c #C3C6CB",
"r 	c #C5C8CD",
"s 	c #C7CACF",
"t 	c #C8CBD0",
"u 	c #C9CCD1",
"v 	c #CACDD2",
"w 	c #C4C7CC",
"x 	c #C2C5CA",
"y 	c #C6C7CB",
"z 	c #C9CACE",
"A 	c #CBCCD0",
"B 	c #CACBCF",
"C 	c #CDCED2",
"D 	c #CECFD3",
"E 	c #F8F8F8",
"F 	c #4E4E4E",
"G 	c #BCBDC2",
"H 	c #C1C0C6",
"I 	c #C0BFC5",
"J 	c #BDBCC2",
"K 	c #BCBBC1",
"L 	c #BFBEC4",
"M 	c #C2C1C7",
"N 	c #C3C2C8",
"O 	c #BFC0C5",
"P 	c #BEBFC4",
"Q 	c #C0C1C6",
"R 	c #C3C4C9",
"S 	c #C7C8CD",
"T 	c #CACBD0",
"U 	c #CECFD4",
"V 	c #C5C6CB",
"W 	c #C2C3C8",
"X 	c #F4F4F4",
"Y 	c #C1C2C7",
"Z 	c #C4C5CA",
"` 	c #CDCED3",
" .	c #CFD0D5",
"..	c #D0D1D6",
"+.	c #F6F6F6",
"@.	c #FAFAFA",
"#.	c #B9BCC1",
"$.	c #BABDC2",
"%.	c #B8BBC0",
"&.	c #BBBEC3",
"*.	c #BDBEC3",
"=.	c #BBBCC1",
"-.	c #BABBC0",
";.	c #F9F9F9",
">.	c #C0C3C8",
",.	c #C1C4C9",
"'.	c #BFC2C7",
").	c #BDC0C5",
"!.	c #BCBFC4",
"~.	c #464646",
"{.	c #E3E3E1",
"].	c #E4E4E2",
"^.	c #E5E5E3",
"/.	c #434343",
"(.	c #D1D2D7",
"_.	c #D3D4D9",
":.	c #D5D6DB",
"<.	c #D7D8DD",
"[.	c #D8D9DE",
"}.	c #D2D3D8",
"|.	c #414141",
"1.	c #C8C7CD",
"2.	c #CAC9CF",
"3.	c #C9C8CE",
"4.	c #C6C5CB",
"5.	c #C5C4CA",
"6.	c #E6E6E4",
"7.	c #E8E8E6",
"8.	c #D6D7DC",
"9.	c #D4D5DA",
"0.	c #E9E9E7",
"a.	c #EDEDEB",
"b.	c #B8B9BE",
"c.	c #B9BABF",
"d.	c #F6F6F4",
"e.	c #EFEFED",
"f.	c #FAFAF8",
"g.	c #FEFEFE",
"h.	c #FBFBFB",
"i.	c #F7F7F7",
"j.	c #EBEBE9",
"k.	c #FFFFFD",
"l.	c #FFFFFF",
"m.	c #FCFCFC",
"n.	c #ECECEA",
"o.	c #F8F8F6",
". + @ + . # $ % $ & # & $ * = = * % % % * * % * * % % % = - ; > , , > ; ' ' ' = ",
") ! + + ! ) & * % $ & # & $ $ * = = = * * = - ~ ; - = = - ; { ] ^ , / - = - ; ' ",
"# . ! + ! ) # * % % $ $ % % * * = ' - = * - ; ( _ ~ ' ' ; { _ , , : < * * ; _ { ",
") . ! [ [ } | 1 2 3 4 5 6 7 8 9 0 a b b c c c c c c d e f g h h i i i h h ; { j ",
") . + k l l m m n o p n l q q r s t t u v r r w q x x q r y z A B A C D C ; _ E ",
") ! + F G H I J K L M N N O O P Q R m S l n T o U U o n m m n o p n S V W { X X ",
". ! @ 1 G Q Y W R Z V R Q Y Y Y W Z m l T o o o o ` ` o p  .....U o T T n +.( X ",
". + @ 3 Z S l n n l l m Z m m m R Y Y W Z n S V R R R Z V S l n n S V Z V @.X ( ",
"! + @ 4 O #.$.#.%.%.$.&.&.*.*.G =.-.=.G *.*.Q Z S n n l S S S T o p n n p ;._ X ",
"+ + + 6 R >.,.,.'.).!.&.$.*.*.P P Q Y W R O P G -.-.G P Q R Y Q Q P G *.O ( ~ ~ ",
"+ + + ~.P P Q Y Y Q Y Y Y W Y Y Q Q O P *.O Q Y Y Y Y Y Y Q O P P P *.G *.~ ; ' ",
"{.].^./.Z W Z Z W Y Y Y Y P Y V l p `  ...(.(.(.(.(._.:.<.[.<.:._.}...U p = # $ ",
"].^.^.|.l 1.2.2.3.4.5.N H W V l l S m m S Z Z Z Z Z m S n ` o n S l p o T - * $ ",
"].^.6.0 p  .` o ` o o U ..(.}.}... .U o T p p T T T n n p U o T p o ` U  .* - & ",
"^.6.7.a _.(.(._.:.<.<.8.<.8.<.8.9.}.(.(...o ` ` ` ` o p ` p p T T p p p p $ * & ",
"7.0.a.b m Z R R Z Z R W W Y R V Z R Z V V m S S S S m S T p o ` ` U ..(. .& $ # ",
"a.< : d m m V R R R R W Y Q R V Z W Y Q Q P *.-.b.c.c.=.P R m l l p .._.}.* $ & ",
"/ / , d.d., / < a.a.e.< < , f.g.g.g.j h.E +.X @.@.;.i.i.E ( ~ ; ' * & * { { - & ",
"/ / > ^ , e.j.< a.a.< a.< d.k.l.l.l.j h.i.X _ l.j E X ( @.m.h.+.+.; # % ( +.; $ ",
"n.a.< a.n.j.a.n.< / e./ ^ o.f.i.i.@.l.l.;.X { X X { ; ; ( m.l.i.( ; * = ; ' * & "};
