/* XPM */
static char * LedRouge_xpm[] = {
"53 52 232 2",
"  	c #FF1919",
". 	c #FF0606",
"+ 	c #FF0000",
"@ 	c #FF0202",
"# 	c #FF0303",
"$ 	c #FF0707",
"% 	c #FF0F0F",
"& 	c #FF1212",
"* 	c #FF1313",
"= 	c #FF1111",
"- 	c #FF0D0D",
"; 	c #FF0808",
"> 	c #FF1616",
", 	c #FF0C0C",
"' 	c #FF0A0A",
") 	c #FF1818",
"! 	c #FF0909",
"~ 	c #FF1B1B",
"{ 	c #FF0101",
"] 	c #FF1717",
"^ 	c #FF0E0E",
"/ 	c #FF0404",
"( 	c #FF1010",
"_ 	c #FF0505",
": 	c #FF1E1E",
"< 	c #FF1414",
"[ 	c #FF1A1A",
"} 	c #FF0B0B",
"| 	c #FF1515",
"1 	c #FF1D1D",
"2 	c #FF1F1F",
"3 	c #FF1C1C",
"4 	c #FF3939",
"5 	c #FF3A3A",
"6 	c #FF3030",
"7 	c #FF3232",
"8 	c #FF2929",
"9 	c #FF2C2C",
"0 	c #FF2828",
"a 	c #FF3434",
"b 	c #FF3838",
"c 	c #FF3636",
"d 	c #FF2D2D",
"e 	c #FF2727",
"f 	c #FF2121",
"g 	c #FF3D3D",
"h 	c #FF3535",
"i 	c #FF2424",
"j 	c #FF3C3C",
"k 	c #FF3333",
"l 	c #FF2A2A",
"m 	c #FF3F3F",
"n 	c #FF2323",
"o 	c #FF2F2F",
"p 	c #FF3E3E",
"q 	c #FF2B2B",
"r 	c #FF3B3B",
"s 	c #FF3131",
"t 	c #FF3737",
"u 	c #FF2222",
"v 	c #FF2E2E",
"w 	c #FF2626",
"x 	c #FF2525",
"y 	c #FF2020",
"z 	c #FF4949",
"A 	c #FF4A4A",
"B 	c #FF4343",
"C 	c #FF5757",
"D 	c #FF5E5E",
"E 	c #FF5C5C",
"F 	c #FF5252",
"G 	c #FF4B4B",
"H 	c #FF4444",
"I 	c #FF5F5F",
"J 	c #FF5656",
"K 	c #FF4E4E",
"L 	c #FF4545",
"M 	c #FF5D5D",
"N 	c #FF5353",
"O 	c #FF4040",
"P 	c #FF4848",
"Q 	c #FF5858",
"R 	c #FF4F4F",
"S 	c #FF5454",
"T 	c #FF4C4C",
"U 	c #FF4141",
"V 	c #FF5A5A",
"W 	c #FF5151",
"X 	c #FF4747",
"Y 	c #FF4242",
"Z 	c #FF5B5B",
"` 	c #FF5959",
" .	c #FF5050",
"..	c #FF4646",
"+.	c #FF4D4D",
"@.	c #FF5555",
"#.	c #FF6767",
"$.	c #FF6868",
"%.	c #FF6161",
"&.	c #FF6565",
"*.	c #FF7777",
"=.	c #FF7C7C",
"-.	c #FF7676",
";.	c #FF6F6F",
">.	c #FF6E6E",
",.	c #FF6666",
"'.	c #FF7A7A",
").	c #FF7070",
"!.	c #FF7979",
"~.	c #FF7F7F",
"{.	c #FF6C6C",
"].	c #FF6262",
"^.	c #FF7171",
"/.	c #FF7D7D",
"(.	c #FF7474",
"_.	c #FF6A6A",
":.	c #FF7B7B",
"<.	c #FF6D6D",
"[.	c #FF6363",
"}.	c #FF7373",
"|.	c #FF7575",
"1.	c #FF6464",
"2.	c #FF6B6B",
"3.	c #FF7E7E",
"4.	c #FF6969",
"5.	c #FF7272",
"6.	c #FF6060",
"7.	c #FF8383",
"8.	c #FF8484",
"9.	c #FF8181",
"0.	c #FF8989",
"a.	c #FF9A9A",
"b.	c #FF9292",
"c.	c #FF8080",
"d.	c #FF9797",
"e.	c #FF8D8D",
"f.	c #FF9696",
"g.	c #FF9898",
"h.	c #FF9D9D",
"i.	c #FF9393",
"j.	c #FF9999",
"k.	c #FF9090",
"l.	c #FF8787",
"m.	c #FF9191",
"n.	c #FF8888",
"o.	c #FF9F9F",
"p.	c #FF8F8F",
"q.	c #FF9B9B",
"r.	c #FF9494",
"s.	c #FF8585",
"t.	c #FF8A8A",
"u.	c #FF8282",
"v.	c #FF9C9C",
"w.	c #FF8C8C",
"x.	c #FF8E8E",
"y.	c #FF9595",
"z.	c #FF8686",
"A.	c #FFA3A3",
"B.	c #FFA4A4",
"C.	c #FFB3B3",
"D.	c #FFB5B5",
"E.	c #FFBDBD",
"F.	c #FFA7A7",
"G.	c #FFAAAA",
"H.	c #FFA1A1",
"I.	c #FFBBBB",
"J.	c #FFB2B2",
"K.	c #FFA0A0",
"L.	c #FFB4B4",
"M.	c #FFBABA",
"N.	c #FFB0B0",
"O.	c #FFA6A6",
"P.	c #FFB7B7",
"Q.	c #FFBCBC",
"R.	c #FFABAB",
"S.	c #FFA2A2",
"T.	c #FFBFBF",
"U.	c #FFB8B8",
"V.	c #FFB1B1",
"W.	c #FFA9A9",
"X.	c #FFA5A5",
"Y.	c #FFBEBE",
"Z.	c #FFB9B9",
"`.	c #FFADAD",
" +	c #FFAEAE",
".+	c #FFA8A8",
"++	c #FFC0C0",
"@+	c #FFDCDC",
"#+	c #FFDFDF",
"$+	c #FFD3D3",
"%+	c #FFD5D5",
"&+	c #FFDEDE",
"*+	c #FFC5C5",
"=+	c #FFD0D0",
"-+	c #FFCBCB",
";+	c #FFC4C4",
">+	c #FFC2C2",
",+	c #FFDBDB",
"'+	c #FFD1D1",
")+	c #FFC7C7",
"!+	c #FFD6D6",
"~+	c #FFCDCD",
"{+	c #FFC3C3",
"]+	c #FFD7D7",
"^+	c #FFCECE",
"/+	c #FFCCCC",
"(+	c #FFD9D9",
"_+	c #FFD8D8",
":+	c #FFCACA",
"<+	c #FFC6C6",
"[+	c #FFCFCF",
"}+	c #FFC1C1",
"|+	c #FFEAEA",
"1+	c #FFEBEB",
"2+	c #FFFDFD",
"3+	c #FFFEFE",
"4+	c #FFF2F2",
"5+	c #FFF4F4",
"6+	c #FFF6F6",
"7+	c #FFEEEE",
"8+	c #FFE4E4",
"9+	c #FFF7F7",
"0+	c #FFF1F1",
"a+	c #FFE9E9",
"b+	c #FFE0E0",
"c+	c #FFECEC",
"d+	c #FFE6E6",
"e+	c #FFE3E3",
"f+	c #FFE1E1",
"g+	c #FFEDED",
"h+	c #FFF5F5",
"i+	c #FFFFFF",
"i+i+i+i+i+i+i+i+i+i+i+i+i+i+i+i+i+i+i+i+i+i+i+i+i+i+i+i+i+i+i+i+i+i+i+i+i+i+i+i+i+i+i+i+i+i+i+i+i+i+i+i+i+",
"i+i+i+i+i+i+i+i+i+i+i+i+i+i+i+i+i+i+i+i+i+i+i+i+i+i+i+i+i+i+i+i+i+i+i+i+i+i+i+i+i+i+i+i+i+i+i+i+i+i+i+i+i+",
"i+i+i+i+i+i+i+i+i+i+i+i+i+i+i+i+i+i+i+i+i+i+i+i+i+i+i+i+i+i+i+i+i+i+i+i+i+i+i+i+i+i+i+i+i+i+i+i+i+i+i+i+i+",
"i+i+i+i+i+i+i+i+i+i+i+i+i+i+i+i+i+i+i+i+i+i+i+i+i+i+i+i+i+i+i+i+i+i+i+i+i+i+i+i+i+i+i+i+i+i+i+i+i+i+i+i+i+",
"i+i+i+i+i+i+i+i+i+i+i+i+i+i+i+i+i+i+i+i+i+i+i+i+i+i+i+i+i+i+i+i+i+i+i+i+i+i+i+i+i+i+i+i+i+i+i+i+i+i+i+i+i+",
"i+i+i+i+i+i+i+i+i+i+i+i+i+i+i+i+i+i+i+i+i+i+i+i+i+i+i+i+i+i+i+i+i+i+i+i+i+i+i+i+i+i+i+i+i+i+i+i+i+i+i+i+i+",
"i+i+i+i+i+i+i+i+i+i+i+i+i+i+i+i+i+i+i+i+i+i+i+i+i+i+i+i+i+i+i+i+i+i+i+i+i+i+i+i+i+i+i+i+i+i+i+i+i+i+i+i+i+",
"i+i+i+i+i+i+i+i+i+i+i+i+i+i+i+i+i+i+i+i+i+|+A.#.4   . + .   5 $.B.1+i+i+i+i+i+i+i+i+i+i+i+i+i+i+i+i+i+i+i+",
"i+i+i+i+i+i+i+i+i+i+i+i+i+i+i+i+i+i+2+C.z @ + + + + + + + + + + + # A D.3+i+i+i+i+i+i+i+i+i+i+i+i+i+i+i+i+",
"i+i+i+i+i+i+i+i+i+i+i+i+i+i+i+i+i+E.6 + + + + + + + + + + + + + + + + + 7 ++i+i+i+i+i+i+i+i+i+i+i+i+i+i+i+",
"i+i+i+i+i+i+i+i+i+i+i+i+i+i+i+4+%.+ + + + + + + + + + + + + + + + + + + + + &.5+i+i+i+i+i+i+i+i+i+i+i+i+i+",
"i+i+i+i+i+i+i+i+i+i+i+i+i+i+@+8 + + + + + + + + $ % & * = - ; # + + + + + + + 9 #+i+i+i+i+i+i+i+i+i+i+i+i+",
"i+i+i+i+i+i+i+i+i+i+i+i+i+$+> + + + + + + , 0 a b 4 c 7 d e f   & ' @ + + + + + ) %+i+i+i+i+i+i+i+i+i+i+i+",
"i+i+i+i+i+i+i+i+i+i+i+i+@+> + + + + + ! B C D D E C F G H g h 9 i ~ * ' { + + + + ) &+i+i+i+i+i+i+i+i+i+i+",
"i+i+i+i+i+i+i+i+i+i+i+4+8 + + + + + A *.7.8.9.=.-.;.#.I J K L j k l f ] ^ / + + + + 9 5+i+i+i+i+i+i+i+i+i+",
"i+i+i+i+i+i+i+i+i+i+i+%.+ + + + + 0.F.G.F.H.a.b.0.c.*.>.&.E F z m c 9 n   ( . + + + + ,.i+i+i+i+i+i+i+i+i+",
"i+i+i+i+i+i+i+i+i+i+E.+ + + + + *+=+-+;+I.J.G.K.d.e.8.'.).#.M N A O c d n   % _ + + + + >+i+i+i+i+i+i+i+i+",
"i+i+i+i+i+i+i+i+i+2+o + + + + 6+7+8+,+'+)+E.L.G.K.f.e.7.!.;.&.E F P p h q f ] - / + + + a 3+i+i+i+i+i+i+i+",
"i+i+i+i+i+i+i+i+i+C.+ + + + g.9+0+a+b+!+~+{+M.N.O.h.i.0.~.-.{.].Q R L r s 0 : < ' + + + + P.i+i+i+i+i+i+i+",
"i+i+i+i+i+i+i+i+i+z + + + + %+c+c+d+#+]+^+*+Q.C.G.K.d.e.8.'.^.#.M S A O t d n [ ( . + + + T i+i+i+i+i+i+i+",
"i+i+i+i+i+i+i+i+|+@ + + + U /+b+e+f+,+%+~+*+E.L.R.S.j.k.l./.(._.%.C K L r s 0 : < } { + + / g+i+i+i+i+i+i+",
"i+i+i+i+i+i+i+i+A.+ + + + :.T.$+(+_+%+=+:+{+I.C.R.A.a.m.n.~.-.<.[.V W X p h q u ) ^ _ + + + F.i+i+i+i+i+i+",
"i+i+i+i+i+i+i+i+#.+ + + + 9.J.<+~+[+~+:+*+T.U.V.W.H.j.m.n.~.*.>.&.E N z O t v i ~ = ; + + + _.i+i+i+i+i+i+",
"i+i+i+i+i+i+i+i+4 + + + | =.X.U.}+;+;+>+Y.Z.C.`.O.o.d.p.l.~.-.>.&.E N G U b o w 1 < ' { + + j i+i+i+i+i+i+",
"i+i+i+i+i+i+i+i+  + + + e }.g.R.D.Z.I.M.P.C. +.+S.q.r.e.s./.|.<.1.E N G Y 4 6 e : | , # + + ~ i+i+i+i+i+i+",
"i+i+i+i+i+i+i+i+. + + + q $.t.h..+ +N.N. +R.F.S.h.d.k.0.u.:.}.2.[.Z N A Y 4 6 0 2 > - / + + $ i+i+i+i+i+i+",
"i+i+i+i+i+i+i+i++ + + + 0 M =.k.q.S.O.F.O.B.K.v.d.b.w.s.3.*.).4.%.` W z U b 6 e 2 > - / + + { i+i+i+i+i+i+",
"i+i+i+i+i+i+i+i+. + + + u W ;.u.x.f.a.v.v.q.g.y.m.w.z.c.'.}.{.&.D J R X m t o w : | - / + + ; i+i+i+i+i+i+",
"i+i+i+i+i+i+i+i+  + + +   L %.(.9.t.p.b.b.b.k.e.0.s.c.:.|.;.$.].Z S T L g h d x 1 < , / + + 3 i+i+i+i+i+i+",
"i+i+i+i+i+i+i+i+5 + + + ( b S #.(./.7.l.n.n.l.s.u.3.'.|.;._.1.M C  .z Y 5 k q n ~ * } @ + + g i+i+i+i+i+i+",
"i+i+i+i+i+i+i+i+$.+ + + _ q ..` #.).*.:./.3.3.=.'.-.}.>.4.1.D Q F T L p t 6 0 y   = ! { + + 2.i+i+i+i+i+i+",
"i+i+i+i+i+i+i+i+B.+ + + + : b G ` [.2.).5.(.(.}.^.>.2.#.[.D ` N +.X U 5 k 9 x 1 > ^ $ + + + .+i+i+i+i+i+i+",
"i+i+i+i+i+i+i+i+1+# + + + = l p T J D 1.#.4._._.$.,.[.6.E C N +.P Y j h o 0 f [ * } / + + / 7+i+i+i+i+i+i+",
"i+i+i+i+i+i+i+i+i+A + + + # 1 6 m A F Q E D 6.6.I M Z Q S  .T X Y j t s l i 1 > % ; { + + K i+i+i+i+i+i+i+",
"i+i+i+i+i+i+i+i+i+D.+ + + + % u s g L T  .S @.J @.S F  .+.z L U j c s q x 2   & } / + + + Z.i+i+i+i+i+i+i+",
"i+i+i+i+i+i+i+i+i+3+7 + + + { < n o 4 O L P G T T G A X L U p 5 h 6 q w y [ < - $ + + + t 3+i+i+i+i+i+i+i+",
"i+i+i+i+i+i+i+i+i+i++++ + + + $ > u 9 k 4 g O U Y U O m j 4 c 7 v l x y [ | % ! @ + + + *+i+i+i+i+i+i+i+i+",
"i+i+i+i+i+i+i+i+i+i+i+&.+ + + + ; | 2 e d s a c t b t c a s v q e n :   < % ! # + + + _.i+i+i+i+i+i+i+i+i+",
"i+i+i+i+i+i+i+i+i+i+i+5+9 + + + + ; & [ y x 8 q d d d 9 q 8 w n 2 ~ ] * ^ ! # + + + o h+i+i+i+i+i+i+i+i+i+",
"i+i+i+i+i+i+i+i+i+i+i+i+#+) + + + + _ - <   : y u n n n u y 1 ~ ) < ( , $ @ + + +   f+i+i+i+i+i+i+i+i+i+i+",
"i+i+i+i+i+i+i+i+i+i+i+i+i+%+) + + + + { ; - & | ]       ) ] | & % , ! _ + + + +   !+i+i+i+i+i+i+i+i+i+i+i+",
"i+i+i+i+i+i+i+i+i+i+i+i+i+i+&+9 + + + + + { . ' , ^ % % % - , ' $ / { + + + + o f+i+i+i+i+i+i+i+i+i+i+i+i+",
"i+i+i+i+i+i+i+i+i+i+i+i+i+i+i+5+,.+ + + + + + + { # / _ _ / # { + + + + + + _.h+i+i+i+i+i+i+i+i+i+i+i+i+i+",
"i+i+i+i+i+i+i+i+i+i+i+i+i+i+i+i+i+}+a + + + + + + + + + + + + + + + + + t *+i+i+i+i+i+i+i+i+i+i+i+i+i+i+i+",
"i+i+i+i+i+i+i+i+i+i+i+i+i+i+i+i+i+i+3+P.T / + + + + + + + + + + + / K Z.3+i+i+i+i+i+i+i+i+i+i+i+i+i+i+i+i+",
"i+i+i+i+i+i+i+i+i+i+i+i+i+i+i+i+i+i+i+i+i+g+F._.j ~ $ { ; 3 g 2..+7+i+i+i+i+i+i+i+i+i+i+i+i+i+i+i+i+i+i+i+",
"i+i+i+i+i+i+i+i+i+i+i+i+i+i+i+i+i+i+i+i+i+i+i+i+i+i+i+i+i+i+i+i+i+i+i+i+i+i+i+i+i+i+i+i+i+i+i+i+i+i+i+i+i+",
"i+i+i+i+i+i+i+i+i+i+i+i+i+i+i+i+i+i+i+i+i+i+i+i+i+i+i+i+i+i+i+i+i+i+i+i+i+i+i+i+i+i+i+i+i+i+i+i+i+i+i+i+i+",
"i+i+i+i+i+i+i+i+i+i+i+i+i+i+i+i+i+i+i+i+i+i+i+i+i+i+i+i+i+i+i+i+i+i+i+i+i+i+i+i+i+i+i+i+i+i+i+i+i+i+i+i+i+",
"i+i+i+i+i+i+i+i+i+i+i+i+i+i+i+i+i+i+i+i+i+i+i+i+i+i+i+i+i+i+i+i+i+i+i+i+i+i+i+i+i+i+i+i+i+i+i+i+i+i+i+i+i+",
"i+i+i+i+i+i+i+i+i+i+i+i+i+i+i+i+i+i+i+i+i+i+i+i+i+i+i+i+i+i+i+i+i+i+i+i+i+i+i+i+i+i+i+i+i+i+i+i+i+i+i+i+i+",
"i+i+i+i+i+i+i+i+i+i+i+i+i+i+i+i+i+i+i+i+i+i+i+i+i+i+i+i+i+i+i+i+i+i+i+i+i+i+i+i+i+i+i+i+i+i+i+i+i+i+i+i+i+"};
